# xmcd
#
# Track frame offsets:
#	150
#	30525
#	60171
#	77582
#	99664
#	154360
#	185599
#	225328
#	237754
#	256614
#	271447
#	293003
#
# Disc length: 4436 seconds
#
# Revision: 0
# Processed by: cddbd v1.5.2PL0 Copyright (c) Steve Scherf et al.
# Submitted via: EZCDAudioConverter 2.1.7.1
#
DISCID=8e11520c
DTITLE=V/A - Afro-Rock V1 (Strut)
DYEAR=1900
DGENRE=
TTITLE0=Jingo - Fever
TTITLE1=Geraldo Pino and The Heartbeats - Heavy Heavy Heavy
TTITLE2=Steele Beautttah - Africa
TTITLE3=Mercury Dance Band - Envy No Good
TTITLE4=Dackin Dackino - Yuda
TTITLE5=K. Frimpong and His Cubano Fiestas - Kyenkyen Bi Adi M'awu
TTITLE6=Orchestra Lissanga - Okuzua
TTITLE7=Super Mambo 69 - Sweeper Soul
TTITLE8=Yahoos - Mabala
TTITLE9=Bokoor Band - Onukpa Shawarpo
TTITLE10=Nkansah and Yaanom - Pem Dwe
TTITLE11=Jingo - Untitled
EXTD=
EXTT0=
EXTT1=
EXTT2=
EXTT3=
EXTT4=
EXTT5=
EXTT6=
EXTT7=
EXTT8=
EXTT9=
EXTT10=
EXTT11=
PLAYORDER=
